<svg width="4255" height="2218" xmlns="http://www.w3.org/2000/svg" xmlns:xlink="http://www.w3.org/1999/xlink" xml:space="preserve" overflow="hidden"><defs><clipPath id="clip0"><rect x="54" y="213" width="4255" height="2218"/></clipPath><linearGradient x1="2180" y1="2300" x2="2180" y2="831" gradientUnits="userSpaceOnUse" spreadMethod="reflect" id="fill1"><stop offset="0" stop-color="#F8FBF6"/><stop offset="0.56" stop-color="#F8FBF6"/><stop offset="0.81" stop-color="#BEDCAA"/><stop offset="0.92" stop-color="#BEDCAA"/><stop offset="1" stop-color="#D4E8C6"/></linearGradient><clipPath id="clip2"><rect x="3177" y="939" width="67" height="67"/></clipPath><clipPath id="clip3"><rect x="3177" y="939" width="67" height="67"/></clipPath><clipPath id="clip4"><rect x="3177" y="939" width="67" height="67"/></clipPath><clipPath id="clip5"><rect x="3402" y="939" width="68" height="67"/></clipPath><clipPath id="clip6"><rect x="3402" y="939" width="68" height="67"/></clipPath><clipPath id="clip7"><rect x="3402" y="939" width="68" height="67"/></clipPath><clipPath id="clip8"><rect x="3628" y="940" width="68" height="68"/></clipPath><clipPath id="clip9"><rect x="3628" y="940" width="68" height="68"/></clipPath><clipPath id="clip10"><rect x="3628" y="940" width="68" height="68"/></clipPath><clipPath id="clip11"><rect x="3846" y="940" width="67" height="68"/></clipPath><clipPath id="clip12"><rect x="3846" y="940" width="67" height="68"/></clipPath><clipPath id="clip13"><rect x="3846" y="940" width="67" height="68"/></clipPath><clipPath id="clip14"><path d="M501.436 677.311 608.602 845.505 440.408 952.671 333.242 784.477Z" fill-rule="evenodd" clip-rule="evenodd"/></clipPath><clipPath id="clip15"><path d="M501.436 677.311 608.602 845.505 440.408 952.671 333.242 784.477Z" fill-rule="evenodd" clip-rule="evenodd"/></clipPath><clipPath id="clip16"><path d="M501.436 677.311 608.602 845.505 440.408 952.671 333.242 784.477Z" fill-rule="evenodd" clip-rule="evenodd"/></clipPath></defs><g clip-path="url(#clip0)" transform="translate(-54 -213)"><rect x="58.0001" y="213" width="4251" height="2218" fill="#FFFFFF"/><rect x="54" y="831" width="4252" height="1469" fill="url(#fill1)"/><rect x="1196" y="698" width="1709" height="148" fill="#CCE5FB"/><rect x="1196" y="621" width="90.0001" height="148" fill="#CCE5FB"/><rect x="1241" y="660" width="89" height="147" fill="#CCE5FB"/><rect x="1375" y="621" width="343" height="148" fill="#CCE5FB"/><rect x="1808" y="625" width="343" height="147" fill="#CCE5FB"/><rect x="2241" y="586" width="90" height="189" fill="#CCE5FB"/><rect x="2406" y="567" width="43" height="189" fill="#CCE5FB"/><rect x="2449" y="625" width="90" height="189" fill="#CCE5FB"/><rect x="2587" y="585" width="112" height="205" fill="#CCE5FB"/><rect x="2741" y="609" width="164" height="205" fill="#CCE5FB"/><rect x="1805" y="593" width="50.9999" height="189" fill="#CCE5FB"/><rect x="1887" y="593" width="107" height="189" fill="#CCE5FB"/><rect x="2037" y="535" width="69.0001" height="190" fill="#CCE5FB"/><path d="M1484 580.8 1554 543 1554 732 1484 732Z" fill="#CCE5FB" fill-rule="evenodd"/><path d="M0 37.8 70.0001 0 70.0001 189 0 189Z" fill="#CCE5FB" fill-rule="evenodd" transform="matrix(-1 0 0 1 2843 506)"/><rect x="1589" y="586" width="68.9998" height="189" fill="#CCE5FB"/><rect x="1617" y="547" width="43" height="189" fill="#CCE5FB"/><rect x="1402" y="593" width="43" height="189" fill="#CCE5FB"/><rect x="1917" y="544" width="13.0001" height="189" fill="#CCE5FB"/><rect x="1939" y="557" width="12" height="190" fill="#CCE5FB"/><rect x="1416" y="565" width="12" height="189" fill="#CCE5FB"/><rect x="2878" y="593" width="12" height="189" fill="#CCE5FB"/><path d="M2683.07 743C2693.03 743 2702.04 746.693 2708.57 752.665L2711.51 755.927 2711.78 755.734C2716.57 752.867 2722.34 751.193 2728.56 751.193 2734.77 751.193 2740.55 752.867 2745.34 755.734L2746.04 756.242 2748.66 753.429C2753.25 749.36 2759.6 746.842 2766.61 746.842 2780.63 746.842 2792 756.911 2792 769.332 2792 781.753 2780.63 791.822 2766.61 791.822 2763.1 791.822 2759.76 791.193 2756.73 790.054L2755.42 789.426 2753.45 792.645C2748.05 799.717 2738.92 804.366 2728.56 804.366 2722.34 804.366 2716.57 802.692 2711.78 799.826L2709.58 798.219 2708.57 799.334C2702.04 805.306 2693.03 809 2683.07 809 2663.15 809 2647 794.225 2647 776 2647 757.774 2663.15 743 2683.07 743Z" fill="#308506" fill-rule="evenodd"/><path d="M2714.5 663C2729.34 663 2742.07 671.264 2747.51 683.042L2748.48 685.931 2749.56 686.03C2761.22 688.216 2770.81 695.591 2775.35 705.406L2776.32 708.295 2777.4 708.394C2793.72 711.454 2806 724.685 2806 740.542 2806 758.666 2789.96 773.357 2770.18 773.357 2759.05 773.357 2749.11 768.709 2742.54 761.416L2740.15 758.344 2739.97 758.878C2734.54 770.656 2721.81 778.92 2706.97 778.92 2702.02 778.92 2697.31 778.002 2693.03 776.341L2687.61 773.651 2685.15 776.389C2678.67 782.327 2669.71 786 2659.82 786 2640.04 786 2624 771.308 2624 753.185 2624 739.593 2633.02 727.931 2645.88 722.949L2647.55 722.475 2647.35 720.37C2647.35 705.102 2658.81 692.725 2672.94 692.725 2674.71 692.725 2676.44 692.918 2678.1 693.286L2678.93 693.563 2679.41 689.202C2682.75 674.249 2697.19 663 2714.5 663Z" fill="#56AB2C" fill-rule="evenodd"/><path d="M2688.35 785.704 2712.84 826.537 2732.79 792.056 2732.79 774.815 2740.95 773 2740.95 788.426 2752.74 775.722 2760 780.259 2737.33 809.296 2721.91 843.778 2725.53 860.111 2730.98 871 2682 869.185 2692.88 855.574 2701.05 831.074 2687.44 801.13 2685.63 793.87 2684.72 790.241 2688.35 785.704Z" fill="#805100" fill-rule="evenodd"/><path d="M2390.07 783C2400.03 783 2409.04 786.694 2415.57 792.666L2418.51 795.927 2418.78 795.734C2423.57 792.867 2429.34 791.194 2435.56 791.194 2441.77 791.194 2447.55 792.867 2452.34 795.734L2453.04 796.242 2455.66 793.43C2460.25 789.36 2466.6 786.843 2473.61 786.843 2487.63 786.843 2499 796.912 2499 809.332 2499 821.753 2487.63 831.822 2473.61 831.822 2470.1 831.822 2466.76 831.193 2463.73 830.055L2462.42 829.426 2460.45 832.645C2455.05 839.717 2445.92 844.367 2435.56 844.367 2429.34 844.367 2423.57 842.693 2418.78 839.826L2416.58 838.219 2415.57 839.335C2409.04 845.306 2400.03 849 2390.07 849 2370.15 849 2354 834.225 2354 816 2354 797.775 2370.15 783 2390.07 783Z" fill="#308506" fill-rule="evenodd"/><path d="M2421.5 703C2436.34 703 2449.07 711.264 2454.51 723.042L2455.48 725.931 2456.56 726.03C2468.22 728.216 2477.81 735.591 2482.35 745.406L2483.32 748.295 2484.4 748.394C2500.72 751.454 2513 764.684 2513 780.542 2513 798.665 2496.96 813.357 2477.18 813.357 2466.05 813.357 2456.11 808.709 2449.54 801.416L2447.16 798.344 2446.97 798.878C2441.54 810.656 2428.81 818.92 2413.97 818.92 2409.02 818.92 2404.31 818.002 2400.03 816.341L2394.61 813.651 2392.15 816.389C2385.67 822.327 2376.71 826 2366.82 826 2347.04 826 2331 811.308 2331 793.185 2331 779.593 2340.02 767.93 2352.88 762.949L2354.55 762.474 2354.35 760.37C2354.35 745.102 2365.81 732.724 2379.94 732.724 2381.71 732.724 2383.44 732.918 2385.1 733.286L2385.93 733.563 2386.41 729.202C2389.75 714.248 2404.19 703 2421.5 703Z" fill="#56AB2C" fill-rule="evenodd"/><path d="M2395.35 825.704 2419.84 866.537 2439.79 832.055 2439.79 814.815 2447.95 813 2447.95 828.426 2459.74 815.722 2467 820.259 2444.33 849.296 2428.91 883.778 2432.53 900.111 2437.98 911 2389 909.185 2399.88 895.574 2408.05 871.074 2394.44 841.13 2392.63 833.87 2391.72 830.241 2395.35 825.704Z" fill="#805100" fill-rule="evenodd"/><path d="M1535.82 765C1545.71 765 1554.67 768.693 1561.15 774.665L1564.07 777.927 1564.33 777.734C1569.09 774.867 1574.82 773.193 1581 773.193 1587.17 773.193 1592.9 774.867 1597.66 777.734L1598.35 778.242 1600.96 775.429C1605.52 771.36 1611.82 768.842 1618.78 768.842 1632.71 768.842 1644 778.911 1644 791.332 1644 803.753 1632.71 813.822 1618.78 813.822 1615.3 813.822 1611.99 813.193 1608.97 812.054L1607.67 811.426 1605.71 814.645C1600.36 821.717 1591.29 826.366 1581 826.366 1574.82 826.366 1569.09 824.692 1564.33 821.826L1562.15 820.219 1561.15 821.334C1554.67 827.306 1545.71 831 1535.82 831 1516.04 831 1500 816.225 1500 798 1500 779.774 1516.04 765 1535.82 765Z" fill="#308506" fill-rule="evenodd"/><path d="M1567 685C1581.92 685 1594.72 693.264 1600.18 705.042L1601.17 707.931 1602.25 708.03C1613.97 710.216 1623.62 717.591 1628.18 727.406L1629.16 730.295 1630.24 730.394C1646.65 733.454 1659 746.685 1659 762.542 1659 780.666 1642.87 795.357 1622.98 795.357 1611.79 795.357 1601.8 790.709 1595.19 783.416L1592.79 780.344 1592.61 780.878C1587.14 792.656 1574.34 800.92 1559.42 800.92 1554.45 800.92 1549.71 800.002 1545.4 798.341L1539.96 795.651 1537.49 798.389C1530.97 804.327 1521.96 808 1512.02 808 1492.13 808 1476 793.308 1476 775.185 1476 761.593 1485.07 749.931 1498 744.949L1499.68 744.475 1499.48 742.37C1499.48 727.102 1511 714.725 1525.21 714.725 1526.99 714.725 1528.72 714.918 1530.4 715.286L1531.23 715.563 1531.71 711.202C1535.07 696.249 1549.59 685 1567 685Z" fill="#56AB2C" fill-rule="evenodd"/><path d="M1541.35 808.574 1565.84 848.991 1585.79 814.861 1585.79 797.796 1593.95 796 1593.95 811.269 1605.74 798.695 1613 803.185 1590.33 831.926 1574.91 866.056 1578.53 882.222 1583.98 893 1535 891.204 1545.88 877.732 1554.05 853.482 1540.44 823.843 1538.63 816.658 1537.72 813.065 1541.35 808.574Z" fill="#805100" fill-rule="evenodd"/><path d="M2192.67 872C2193.4 872 2194 872.597 2194 873.333L2194 903.667C2194 904.403 2193.4 905 2192.67 905L2187.33 905C2186.6 905 2186 904.403 2186 903.667L2186 873.333C2186 872.597 2186.6 872 2187.33 872Z" fill="#F2F2F2" fill-rule="evenodd"/><path d="M2276.67 876C2277.4 876 2278 876.597 2278 877.333L2278 907.666C2278 908.403 2277.4 909 2276.67 909L2271.33 909C2270.6 909 2270 908.403 2270 907.666L2270 877.333C2270 876.597 2270.6 876 2271.33 876Z" fill="#F2F2F2" fill-rule="evenodd"/><path d="M2298.67 870C2299.4 870 2300 870.597 2300 871.333L2300 900.667C2300 901.403 2299.4 902 2298.67 902L2293.33 902C2292.6 902 2292 901.403 2292 900.667L2292 871.333C2292 870.597 2292.6 870 2293.33 870Z" fill="#F2F2F2" fill-rule="evenodd"/><path d="M2185 821.667C2185 820.746 2185.75 820 2186.67 820L2306.33 820C2307.25 820 2308 820.746 2308 821.667L2308 828.333C2308 829.254 2307.25 830 2306.33 830L2186.67 830C2185.75 830 2185 829.254 2185 828.333Z" fill="#A86F56" fill-rule="evenodd"/><path d="M2185 837.5C2185 836.672 2185.67 836 2186.5 836L2306.5 836C2307.33 836 2308 836.672 2308 837.5L2308 843.5C2308 844.328 2307.33 845 2306.5 845L2186.5 845C2185.67 845 2185 844.328 2185 843.5Z" fill="#A86F56" fill-rule="evenodd"/><path d="M2185 852.667C2185 851.746 2185.75 851 2186.67 851L2306.33 851C2307.25 851 2308 851.746 2308 852.667L2308 859.333C2308 860.254 2307.25 861 2306.33 861L2186.67 861C2185.75 861 2185 860.254 2185 859.333Z" fill="#A86F56" fill-rule="evenodd"/><path d="M2173.67 876C2174.4 876 2175 876.597 2175 877.333L2175 907.666C2175 908.403 2174.4 909 2173.67 909L2168.33 909C2167.6 909 2167 908.403 2167 907.666L2167 877.333C2167 876.597 2167.6 876 2168.33 876Z" fill="#F2F2F2" fill-rule="evenodd"/><path d="M2162 876 2191.2 868 2308 868 2278.8 876Z" fill="#A86F56" fill-rule="evenodd"/><path d="M2161 877C2161 876.448 2161.45 876 2162 876L2277 876C2277.55 876 2278 876.448 2278 877L2278 881C2278 881.552 2277.55 882 2277 882L2162 882C2161.45 882 2161 881.552 2161 881Z" fill="#A86F56" fill-rule="evenodd"/><path d="M2276.72 877.728C2276.55 877.209 2276.84 876.654 2277.36 876.487L2306.55 867.087C2307.07 866.92 2307.63 867.205 2307.79 867.723L2309 871.478C2309.17 871.997 2308.88 872.552 2308.37 872.719L2279.17 882.119C2278.65 882.286 2278.1 882.001 2277.93 881.483Z" fill="#A86F56" fill-rule="evenodd"/><rect x="2902" y="699" width="1406" height="148" fill="#CCE5FB"/><rect x="2902" y="622" width="74" height="148" fill="#CCE5FB"/><rect x="2939" y="660" width="74" height="148" fill="#CCE5FB"/><rect x="3050" y="622" width="282" height="148" fill="#CCE5FB"/><rect x="3406" y="625" width="282" height="148" fill="#CCE5FB"/><rect x="3762" y="586" width="74" height="190" fill="#CCE5FB"/><rect x="3898" y="567" width="34.9998" height="190" fill="#CCE5FB"/><rect x="3933" y="625" width="74.0002" height="190" fill="#CCE5FB"/><rect x="4047" y="585" width="92" height="206" fill="#CCE5FB"/><rect x="4173" y="609" width="135" height="206" fill="#CCE5FB"/><rect x="3403" y="593" width="43" height="190" fill="#CCE5FB"/><rect x="3471" y="593" width="88" height="190" fill="#CCE5FB"/><rect x="3594" y="535" width="57" height="190" fill="#CCE5FB"/><path d="M3140 581 3197 543 3197 733 3140 733Z" fill="#CCE5FB" fill-rule="evenodd"/><path d="M0 38 58.0001 0 58.0001 190 0 190Z" fill="#CCE5FB" fill-rule="evenodd" transform="matrix(-1 0 0 1 4257 506)"/><rect x="3225" y="586" width="58" height="190" fill="#CCE5FB"/><rect x="3249" y="547" width="34.9998" height="190" fill="#CCE5FB"/><rect x="3072" y="593" width="35" height="190" fill="#CCE5FB"/><rect x="3496" y="544" width="10" height="190" fill="#CCE5FB"/><rect x="3513" y="558" width="10" height="189" fill="#CCE5FB"/><rect x="3083" y="566" width="11" height="189" fill="#CCE5FB"/><rect x="4286" y="593" width="10" height="190" fill="#CCE5FB"/><path d="M3134 1005.5C3134 1000.81 3137.81 997 3142.5 997L3142.5 997C3147.19 997 3151 1000.81 3151 1005.5L3151 1038.5C3151 1043.19 3147.19 1047 3142.5 1047L3142.5 1047C3137.81 1047 3134 1043.19 3134 1038.5Z" fill="#353638" fill-rule="evenodd"/><path d="M3272 1005.5C3272 1000.81 3275.81 997 3280.5 997L3280.5 997C3285.19 997 3289 1000.81 3289 1005.5L3289 1038.5C3289 1043.19 3285.19 1047 3280.5 1047L3280.5 1047C3275.81 1047 3272 1043.19 3272 1038.5Z" fill="#353638" fill-rule="evenodd"/><path d="M3300 892 3274.72 1037 3148.28 1037 3123 892Z" fill="#ED4046" fill-rule="evenodd"/><path d="M3136 883 3153.5 813 3269.5 813 3287 883Z" fill="#E54244" fill-rule="evenodd"/><path d="M3149 883 3163.5 825 3259.5 825 3274 883Z" fill="#353638" fill-rule="evenodd"/><path d="M3311 895.036C3311 901.091 3306.09 906 3300.04 906L3121.96 906C3115.91 906 3111 901.091 3111 895.036L3111 888.964C3111 882.909 3115.91 878 3121.96 878L3300.04 878C3306.09 878 3311 882.909 3311 888.964Z" fill="#F36C70" fill-rule="evenodd"/><g clip-path="url(#clip2)"><g clip-path="url(#clip3)"><g clip-path="url(#clip4)"><path d="M3188.43 987.421C3188.95 988.42 3189.94 989.087 3191.06 989.188L3203.44 989.188 3203.44 994.688 3191.06 994.688C3187.93 994.631 3185.06 992.91 3183.53 990.171 3182.07 987.527 3182.2 984.29 3183.86 981.769L3191.01 969.394 3186.3 966.644 3197.81 963.565 3200.89 975.073 3195.88 972.193 3188.7 984.636C3188.08 985.438 3187.98 986.517 3188.43 987.421Z" fill="#FFFFFF"/><path d="M3198.16 959.034 3203.91 948.288C3205.42 945.573 3208.29 943.896 3211.4 943.916 3214.42 943.978 3217.16 945.709 3218.51 948.412L3225.66 960.787 3230.37 958.037 3227.29 969.58 3215.81 966.5 3220.82 963.606 3213.61 951.155C3213.21 950.225 3212.33 949.597 3211.32 949.533 3210.26 949.585 3209.3 950.177 3208.78 951.1L3203.02 961.846Z" fill="#FFFFFF"/><path d="M3238.22 990.721C3236.71 993.243 3233.97 994.759 3231.03 994.688L3216.5 994.688 3216.5 1000.19 3208.05 991.594 3216.5 983.234 3216.5 989.188 3230.85 989.188C3231.88 989.256 3232.86 988.741 3233.39 987.854 3233.91 986.915 3233.87 985.772 3233.31 984.863L3227.02 974.138 3231.88 971.313 3238.18 982.031C3238.53 982.655 3238.81 983.32 3239.01 984.011L3239.13 984.464C3239.65 986.589 3239.32 988.832 3238.22 990.721Z" fill="#FFFFFF"/></g></g></g><path d="M3358 1005.5C3358 1000.81 3361.81 997 3366.5 997L3366.5 997C3371.19 997 3375 1000.81 3375 1005.5L3375 1038.5C3375 1043.19 3371.19 1047 3366.5 1047L3366.5 1047C3361.81 1047 3358 1043.19 3358 1038.5Z" fill="#353638" fill-rule="evenodd"/><path d="M3496 1005.5C3496 1000.81 3499.81 997 3504.5 997L3504.5 997C3509.19 997 3513 1000.81 3513 1005.5L3513 1038.5C3513 1043.19 3509.19 1047 3504.5 1047L3504.5 1047C3499.81 1047 3496 1043.19 3496 1038.5Z" fill="#353638" fill-rule="evenodd"/><path d="M3524 892 3498.72 1037 3372.28 1037 3347 892Z" fill="#58AD46" fill-rule="evenodd"/><path d="M3360 883 3377.5 813 3493.5 813 3511 883Z" fill="#57AE46" fill-rule="evenodd"/><path d="M3373 883 3387.5 825 3483.5 825 3498 883Z" fill="#353638" fill-rule="evenodd"/><path d="M3535 895.036C3535 901.091 3530.09 906 3524.04 906L3345.96 906C3339.91 906 3335 901.091 3335 895.036L3335 888.964C3335 882.909 3339.91 878 3345.96 878L3524.04 878C3530.09 878 3535 882.909 3535 888.964Z" fill="#8EC63F" fill-rule="evenodd"/><g clip-path="url(#clip5)"><g clip-path="url(#clip6)"><g clip-path="url(#clip7)"><path d="M10.4294 48.4206C10.9481 49.4203 11.9408 50.0864 13.0625 50.1875L25.4375 50.1875 25.4375 55.6875 13.0625 55.6875C9.92764 55.6305 7.05987 53.9098 5.53438 51.1706 4.07298 48.5268 4.20011 45.2904 5.86437 42.7694L13.0144 30.3944 8.29812 27.6444 19.8069 24.5644 22.8869 36.0731 17.875 33.1925 10.6975 45.6362C10.0849 46.4375 9.98099 47.5173 10.4294 48.4206Z" fill="#FFFFFF" transform="matrix(1.01515 0 0 1 3402 939)"/><path d="M20.1575 20.0337 25.9119 9.28813C27.4214 6.5724 30.2917 4.89604 33.3988 4.91563 36.4196 4.97758 39.157 6.70903 40.5075 9.41187L47.6575 21.7869 52.3737 19.0369 49.2937 30.58 37.8125 27.5 42.8175 24.6056 35.6056 12.155C35.214 11.2252 34.33 10.5968 33.3231 10.5325 32.2628 10.585 31.303 11.1765 30.7794 12.1L25.0181 22.8456Z" fill="#FFFFFF" transform="matrix(1.01515 0 0 1 3402 939)"/><path d="M60.2181 51.7206C58.7149 54.2428 55.969 55.759 53.0337 55.6875L38.5 55.6875 38.5 61.1875 30.0506 52.5938 38.5 44.2337 38.5 50.1875 52.8481 50.1875C53.8793 50.2562 54.8619 49.741 55.3919 48.8537 55.9052 47.9148 55.8736 46.7723 55.3094 45.8631L49.0188 35.1381 53.8794 32.3125 60.1769 43.0306C60.5319 43.6552 60.8112 44.3199 61.0087 45.0106L61.1256 45.4644C61.6455 47.5886 61.3201 49.8316 60.2181 51.7206Z" fill="#FFFFFF" transform="matrix(1.01515 0 0 1 3402 939)"/></g></g></g><path d="M3585 1008.5C3585 1003.81 3588.81 1000 3593.5 1000L3593.5 1000C3598.19 1000 3602 1003.81 3602 1008.5L3602 1040.5C3602 1045.19 3598.19 1049 3593.5 1049L3593.5 1049C3588.81 1049 3585 1045.19 3585 1040.5Z" fill="#353638" fill-rule="evenodd"/><path d="M3723 1008.5C3723 1003.81 3726.81 1000 3731.5 1000L3731.5 1000C3736.19 1000 3740 1003.81 3740 1008.5L3740 1040.5C3740 1045.19 3736.19 1049 3731.5 1049L3731.5 1049C3726.81 1049 3723 1045.19 3723 1040.5Z" fill="#353638" fill-rule="evenodd"/><path d="M3751 895 3725.72 1040 3599.28 1040 3574 895Z" fill="#3984C5" fill-rule="evenodd"/><path d="M3587 885 3604.5 815 3720.5 815 3738 885Z" fill="#3885C3" fill-rule="evenodd"/><path d="M3600 885 3614.25 828 3710.75 828 3725 885Z" fill="#353638" fill-rule="evenodd"/><path d="M3762 898.036C3762 904.091 3757.09 909 3751.04 909L3573.96 909C3567.91 909 3563 904.091 3563 898.036L3563 891.964C3563 885.909 3567.91 881 3573.96 881L3751.04 881C3757.09 881 3762 885.909 3762 891.964Z" fill="#3F98D2" fill-rule="evenodd"/><g clip-path="url(#clip8)"><g clip-path="url(#clip9)"><g clip-path="url(#clip10)"><path d="M3639.59 990.154C3640.11 991.169 3641.12 991.845 3642.26 991.948L3654.82 991.948 3654.82 997.531 3642.26 997.531C3639.08 997.473 3636.17 995.727 3634.62 992.946 3633.13 990.262 3633.26 986.976 3634.95 984.417L3642.21 971.855 3637.42 969.063 3649.11 965.936 3652.23 977.62 3647.15 974.695 3639.86 987.328C3639.24 988.141 3639.13 989.237 3639.59 990.154Z" fill="#FFFFFF"/><path d="M3649.46 961.337 3655.3 950.429C3656.84 947.672 3659.75 945.97 3662.9 945.99 3665.97 946.053 3668.75 947.81 3670.12 950.554L3677.38 963.117 3682.17 960.325 3679.04 972.043 3667.39 968.917 3672.47 965.978 3665.15 953.339C3664.75 952.395 3663.85 951.757 3662.83 951.692 3661.75 951.745 3660.78 952.346 3660.25 953.283L3654.4 964.192Z" fill="#FFFFFF"/><path d="M3690.13 993.504C3688.6 996.065 3685.82 997.604 3682.84 997.531L3668.08 997.531 3668.08 1003.11 3659.51 994.39 3668.08 985.904 3668.08 991.948 3682.65 991.948C3683.7 992.017 3684.69 991.494 3685.23 990.594 3685.75 989.641 3685.72 988.481 3685.15 987.558L3678.76 976.67 3683.7 973.802 3690.09 984.682C3690.45 985.317 3690.73 985.991 3690.93 986.692L3691.05 987.153C3691.58 989.31 3691.25 991.586 3690.13 993.504Z" fill="#FFFFFF"/></g></g></g><path d="M3802 1008.5C3802 1003.81 3805.81 1000 3810.5 1000L3810.5 1000C3815.19 1000 3819 1003.81 3819 1008.5L3819 1040.5C3819 1045.19 3815.19 1049 3810.5 1049L3810.5 1049C3805.81 1049 3802 1045.19 3802 1040.5Z" fill="#353638" fill-rule="evenodd"/><path d="M3940 1008.5C3940 1003.81 3943.81 1000 3948.5 1000L3948.5 1000C3953.19 1000 3957 1003.81 3957 1008.5L3957 1040.5C3957 1045.19 3953.19 1049 3948.5 1049L3948.5 1049C3943.81 1049 3940 1045.19 3940 1040.5Z" fill="#353638" fill-rule="evenodd"/><path d="M3968 895 3942.72 1040 3817.28 1040 3792 895Z" fill="#444444" fill-rule="evenodd"/><path d="M3804 885 3821.5 815 3937.5 815 3955 885Z" fill="#444444" fill-rule="evenodd"/><path d="M3817 885 3831.25 828 3927.75 828 3942 885Z" fill="#353638" fill-rule="evenodd"/><path d="M3980 898.036C3980 904.091 3975.09 909 3969.04 909L3790.96 909C3784.91 909 3780 904.091 3780 898.036L3780 891.964C3780 885.909 3784.91 881 3790.96 881L3969.04 881C3975.09 881 3980 885.909 3980 891.964Z" fill="#515151" fill-rule="evenodd"/><g clip-path="url(#clip11)"><g clip-path="url(#clip12)"><g clip-path="url(#clip13)"><path d="M10.4294 48.4206C10.9481 49.4203 11.9408 50.0864 13.0625 50.1875L25.4375 50.1875 25.4375 55.6875 13.0625 55.6875C9.92764 55.6305 7.05987 53.9098 5.53438 51.1706 4.07298 48.5268 4.20011 45.2904 5.86437 42.7694L13.0144 30.3944 8.29812 27.6444 19.8069 24.5644 22.8869 36.0731 17.875 33.1925 10.6975 45.6362C10.0849 46.4375 9.98099 47.5173 10.4294 48.4206Z" fill="#FFFFFF" transform="matrix(1 0 0 1.01515 3847 941)"/><path d="M20.1575 20.0337 25.9119 9.28813C27.4214 6.5724 30.2917 4.89604 33.3988 4.91563 36.4196 4.97758 39.157 6.70903 40.5075 9.41187L47.6575 21.7869 52.3737 19.0369 49.2937 30.58 37.8125 27.5 42.8175 24.6056 35.6056 12.155C35.214 11.2252 34.33 10.5968 33.3231 10.5325 32.2628 10.585 31.303 11.1765 30.7794 12.1L25.0181 22.8456Z" fill="#FFFFFF" transform="matrix(1 0 0 1.01515 3847 941)"/><path d="M60.2181 51.7206C58.7149 54.2428 55.969 55.759 53.0337 55.6875L38.5 55.6875 38.5 61.1875 30.0506 52.5938 38.5 44.2337 38.5 50.1875 52.8481 50.1875C53.8793 50.2562 54.8619 49.741 55.3919 48.8537 55.9052 47.9148 55.8736 46.7723 55.3094 45.8631L49.0188 35.1381 53.8794 32.3125 60.1769 43.0306C60.5319 43.6552 60.8112 44.3199 61.0087 45.0106L61.1256 45.4644C61.6455 47.5886 61.3201 49.8316 60.2181 51.7206Z" fill="#FFFFFF" transform="matrix(1 0 0 1.01515 3847 941)"/></g></g></g><rect x="55" y="698" width="1141" height="148" fill="#CCE5FB"/><rect x="55" y="621" width="60.0002" height="148" fill="#CCE5FB"/><rect x="84.9999" y="660" width="60.0002" height="148" fill="#CCE5FB"/><rect x="175" y="621" width="229" height="148" fill="#CCE5FB"/><rect x="464" y="625" width="229" height="147" fill="#CCE5FB"/><rect x="753" y="586" width="59.9998" height="190" fill="#CCE5FB"/><rect x="863" y="567" width="28.9999" height="189" fill="#CCE5FB"/><rect x="892" y="625" width="59.9998" height="189" fill="#CCE5FB"/><rect x="984" y="585" width="74.9999" height="205" fill="#CCE5FB"/><rect x="1087" y="609" width="109" height="205" fill="#CCE5FB"/><rect x="462" y="593" width="34" height="189" fill="#CCE5FB"/><rect x="517" y="593" width="71.0002" height="189" fill="#CCE5FB"/><rect x="617" y="535" width="46.0001" height="190" fill="#CCE5FB"/><path d="M248 580.8 295 543 295 732 248 732Z" fill="#CCE5FB" fill-rule="evenodd"/><path d="M0 37.8 47.0001 0 47.0001 189 0 189Z" fill="#CCE5FB" fill-rule="evenodd" transform="matrix(-1 0 0 1 1155 506)"/><rect x="318" y="586" width="46.0001" height="190" fill="#CCE5FB"/><rect x="337" y="547" width="29.0002" height="189" fill="#CCE5FB"/><rect x="193" y="593" width="29.0002" height="189" fill="#CCE5FB"/><rect x="537" y="543" width="7.99988" height="190" fill="#CCE5FB"/><rect x="551" y="557" width="8.99994" height="190" fill="#CCE5FB"/><rect x="202" y="565" width="8.99994" height="190" fill="#CCE5FB"/><rect x="1179" y="593" width="7.99988" height="189" fill="#CCE5FB"/><path d="M491.277 649.196C538.095 649.196 576.049 690.823 576.049 742.172 576.049 767.846 566.561 791.09 551.22 807.916L547.068 811.673 543.088 820.842C530.716 840.688 497.686 849.325 463.262 840.198 423.92 829.766 397.656 800.08 404.599 773.893 405.467 770.62 406.813 767.556 408.58 764.721L409.122 764.072 408.227 760.91C407.098 754.857 406.505 748.591 406.505 742.172 406.505 690.823 444.459 649.196 491.277 649.196Z" fill="#F7BA5C" fill-rule="evenodd"/><path d="M481.575 960.51C446.216 913.404 442.528 856.469 473.337 833.343 504.147 810.218 557.786 829.658 593.145 876.764 628.503 923.871 632.191 980.805 601.382 1003.93 570.573 1027.06 516.933 1007.62 481.575 960.51Z" fill="#F7BA5C" fill-rule="evenodd"/><path d="M2.95995 0.510431C8.78355-1.00878 28.0269 0.00406718 37.9018 15.7025 47.7767 31.401 54.8664 78.2434 62.2092 94.7015 69.552 111.16 85.2506 107.868 81.9589 114.451 78.6672 121.034 54.6131 135.72 42.4594 134.201 30.3057 132.682 15.62 123.566 9.03679 105.336 2.45358 87.1054 4.47916 41.5291 2.95995 24.8178 1.44074 8.10648-2.86365 2.02964 2.95995 0.510431Z" fill-rule="evenodd" transform="matrix(-0.982159 -0.188052 -0.188052 0.982159 434.497 671.218)"/><g clip-path="url(#clip14)"><g clip-path="url(#clip15)"><g clip-path="url(#clip16)"><path d="M550.2 834.066C549.805 833.445 549.375 832.848 548.912 832.276 549.573 831.954 550.216 831.594 550.836 831.198 560.498 825.011 563.315 812.162 557.128 802.5 550.941 792.838 538.093 790.021 528.431 796.208 523.96 799.071 520.754 803.537 519.473 808.689L429.58 788.766C431.823 777.514 424.521 766.574 413.269 764.33 402.017 762.087 391.077 769.389 388.833 780.641 387.784 785.901 388.81 791.362 391.696 795.882 392.091 796.503 392.521 797.101 392.985 797.672 392.323 797.995 391.681 798.355 391.061 798.751 381.38 804.909 378.524 817.749 384.682 827.429 390.84 837.11 403.68 839.966 413.36 833.808 417.858 830.947 421.084 826.466 422.371 821.293L512.264 841.216C510.021 852.468 517.323 863.408 528.575 865.652 539.827 867.895 550.767 860.593 553.011 849.341 554.06 844.081 553.034 838.62 550.148 834.1Z" fill="#FFF2CC"/></g></g></g><path d="M478.384 789.384C472.707 808.545 459.651 815.623 449.221 805.194 443.055 799.027 438.916 787.717 438.134 774.899Z" fill="#F7BA5C" fill-rule="evenodd"/><path d="M40.6986 58.5101C34.9337 77.6323 21.749 84.6225 11.2496 74.1231 5.0728 67.9463 0.928722 56.689 0.137185 43.9363Z" fill="#F7BA5C" fill-rule="evenodd" transform="matrix(-0.923421 -0.383788 -0.383788 0.923421 536.309 749.301)"/><path d="M472.615 782.804C468.194 780.052 455.999 770.267 457.066 767.21 458.133 764.152 471.7 763.387 479.018 764.458 486.335 765.528 500.207 770.42 500.969 773.631 501.732 776.842 488.012 781.887 483.591 783.721 479.17 785.556 477.036 785.556 472.615 782.804Z" fill="#A86F56" fill-rule="evenodd"/><path d="M451.145 830.37C451.64 819.211 460.383 812.381 470.674 815.116 480.965 817.85 488.906 829.114 488.411 840.273 488.406 840.38 488.401 840.486 488.395 840.591Z" fill="#F7BA5C" fill-rule="evenodd"/><path d="M559.981 690.509C565.847 688.993 585.229 690.004 595.175 705.666 605.121 721.328 612.261 768.062 619.657 784.483 627.053 800.903 642.865 797.619 639.549 804.187 636.234 810.755 612.006 825.406 599.765 823.891 587.524 822.375 572.732 813.281 566.102 795.092 559.471 776.904 561.511 731.433 559.981 714.76 558.451 698.088 554.116 692.025 559.981 690.509Z" fill-rule="evenodd"/><path d="M510 750.5C510 746.358 513.806 743 518.5 743 523.194 743 527 746.358 527 750.5 527 754.642 523.194 758 518.5 758 513.806 758 510 754.642 510 750.5Z" fill-rule="evenodd"/><path d="M597.537 985.222C605.882 980.371 634.084 976.376 644.156 969.813 654.229 963.25 652.502 948.411 657.97 945.843 663.437 943.275 677.826 946.699 676.963 954.404 676.099 962.108 662.286 984.652 652.79 992.071 643.293 999.49 629.768 997.778 619.983 998.919 610.199 1000.06 598.4 1000.63 594.084 998.919 589.767 997.207 589.192 990.073 597.537 985.222Z" fill-rule="evenodd"/><path d="M449 738.5C449 734.358 452.806 731 457.5 731 462.195 731 466 734.358 466 738.5 466 742.642 462.195 746 457.5 746 452.806 746 449 742.642 449 738.5Z" fill-rule="evenodd"/><path d="M541.213 984.446C538.167 953.805 557.645 926.785 584.718 924.093 611.791 921.402 636.207 944.06 639.253 974.7 642.299 1005.34 622.821 1032.36 595.748 1035.05 568.675 1037.74 544.259 1015.09 541.213 984.446Z" fill="#F7BA5C" fill-rule="evenodd"/><path d="M507.709 937.732C499.492 941.502 510.534 954.318 509.25 972.412 507.966 990.505 499.749 1031.72 500.006 1046.29 500.263 1060.87 504.371 1057.85 510.791 1059.86 517.21 1061.87 533.387 1061.12 538.522 1058.36 543.658 1055.59 540.063 1059.11 541.604 1043.28 543.144 1027.45 544.942 978.946 547.766 963.365 550.591 947.784 564.456 953.816 558.551 949.795 552.645 945.774 515.926 933.963 507.709 937.732Z" fill="#F7BA5C" fill-rule="evenodd"/><path d="M489 1069.5C489 1060.39 501.312 1053 516.5 1053 531.688 1053 544 1060.39 544 1069.5 544 1078.61 531.688 1086 516.5 1086 501.312 1086 489 1078.61 489 1069.5Z" fill="#F7BA5C" fill-rule="evenodd"/><path d="M469.951 915.569C461.178 917.332 468.683 932.464 463.119 949.871 457.555 967.277 439.813 1005.69 436.567 1020.01 433.322 1034.34 437.979 1032.35 443.646 1035.82 449.313 1039.29 464.988 1042.35 470.569 1040.85 476.15 1039.34 471.864 1041.94 477.132 1026.81 482.4 1011.68 495.74 964.632 502.177 950.046 508.615 935.46 520.451 944.613 515.758 939.294 511.064 933.974 478.724 913.807 469.951 915.569Z" fill="#F7BA5C" fill-rule="evenodd"/><path d="M422.656 1036.48C424.84 1027.55 438.504 1023.23 453.175 1026.82 467.846 1030.41 477.969 1040.55 475.785 1049.48 473.6 1058.4 459.936 1062.73 445.265 1059.14 430.594 1055.54 420.472 1045.4 422.656 1036.48Z" fill="#F7BA5C" fill-rule="evenodd"/><path d="M547 1042.5C547 1033.39 559.312 1026 574.5 1026 589.688 1026 602 1033.39 602 1042.5 602 1051.61 589.688 1059 574.5 1059 559.312 1059 547 1051.61 547 1042.5Z" fill="#F7BA5C" fill-rule="evenodd"/><path d="M554.644 887.057C559.238 879.1 573.566 878.772 586.646 886.324 599.727 893.877 606.607 906.449 602.013 914.405 597.419 922.362 583.091 922.69 570.011 915.138 556.93 907.586 550.05 895.014 554.644 887.057Z" fill-rule="evenodd"/><path d="M552.137 925.126C554.788 920.534 563.057 920.345 570.606 924.703 578.155 929.062 582.126 936.318 579.474 940.91 576.823 945.502 568.554 945.691 561.005 941.333 553.456 936.974 549.485 929.718 552.137 925.126Z" fill-rule="evenodd"/><path d="M487 1014C487 1004.61 499.088 997 514 997 528.912 997 541 1004.61 541 1014 541 1023.39 528.912 1031 514 1031 499.088 1031 487 1023.39 487 1014Z" fill="#F7BA5C" fill-rule="evenodd"/><path d="M1028.55 839.161C1033.18 736.201 1228.04 755.31 1074.95 949.537 829.066 923.012 951.755 770.426 1028.55 839.161Z" fill="#FF5D5D" fill-rule="evenodd"/><rect x="910" y="879" width="268" height="164" fill="#CC9900"/><rect x="776" y="879" width="134" height="164" fill="#B08200"/><path d="M747 930 775.711 879 910 879 881.288 930Z" fill="#DEA400" fill-rule="evenodd"/><path d="M0 50.9999 28.7113 0 297 0 268.289 50.9999Z" fill="#FFC41D" fill-rule="evenodd" transform="matrix(1 0 0 -1 910 930)"/></g></svg>