<svg xmlns="http://www.w3.org/2000/svg" xmlns:xlink="http://www.w3.org/1999/xlink" width="1080" zoomAndPan="magnify" viewBox="0 0 810 374.999991" height="500" preserveAspectRatio="xMidYMid meet" version="1.0"><defs><g/></defs><g fill="#000000" fill-opacity="1"><g transform="translate(14.521916, 234.549142)"><g><path d="M 78.109375 1.558594 C 117.082031 1.558594 145.457031 -3.742188 145.457031 -32.738281 C 145.457031 -60.179688 118.796875 -62.363281 75.769531 -64.855469 C 41.9375 -66.882812 34.609375 -69.066406 34.609375 -78.574219 C 34.609375 -87.617188 41.9375 -90.890625 71.714844 -90.890625 C 103.363281 -90.890625 116.148438 -87.304688 116.148438 -73.585938 L 140.78125 -73.585938 C 140.78125 -100.402344 115.679688 -110.691406 74.832031 -110.691406 C 34.609375 -110.691406 9.976562 -103.832031 9.976562 -79.824219 C 9.976562 -55.5 28.84375 -48.175781 75.769531 -45.835938 C 113.808594 -43.808594 120.824219 -42.25 120.824219 -31.804688 C 120.824219 -22.136719 110.378906 -18.242188 79.667969 -18.242188 C 41.46875 -18.242188 30.714844 -24.164062 30.714844 -37.417969 L 6.082031 -37.417969 C 6.082031 -6.082031 33.363281 1.558594 78.109375 1.558594 Z M 78.109375 1.558594 "/></g></g></g><g fill="#000000" fill-opacity="1"><g transform="translate(154.502547, 234.549142)"><g><path d="M 69.6875 1.558594 C 107.261719 1.558594 133.296875 -12.160156 133.296875 -45.679688 C 133.296875 -79.042969 107.261719 -92.761719 69.6875 -92.761719 C 32.273438 -92.761719 6.082031 -79.042969 6.082031 -45.679688 C 6.082031 -12.160156 32.273438 1.558594 69.6875 1.558594 Z M 69.6875 -18.242188 C 42.875 -18.242188 29.933594 -25.101562 29.933594 -45.679688 C 29.933594 -66.101562 42.875 -72.964844 69.6875 -72.964844 C 96.660156 -72.964844 109.445312 -66.101562 109.445312 -45.679688 C 109.445312 -25.101562 96.660156 -18.242188 69.6875 -18.242188 Z M 69.6875 -18.242188 "/></g></g></g><g fill="#000000" fill-opacity="1"><g transform="translate(282.324276, 234.549142)"><g><path d="M 69.6875 1.558594 C 103.207031 1.558594 127.683594 -9.355469 132.363281 -35.859375 L 108.195312 -35.859375 C 104.300781 -22.917969 90.582031 -18.242188 69.6875 -18.242188 C 45.054688 -18.242188 29.933594 -25.101562 29.933594 -45.679688 C 29.933594 -66.101562 45.054688 -72.964844 69.6875 -72.964844 C 90.582031 -72.964844 104.300781 -68.441406 108.195312 -55.5 L 132.363281 -55.5 C 127.683594 -81.847656 103.207031 -92.761719 69.6875 -92.761719 C 32.273438 -92.761719 6.082031 -79.042969 6.082031 -45.679688 C 6.082031 -12.160156 32.273438 1.558594 69.6875 1.558594 Z M 69.6875 1.558594 "/></g></g></g><g fill="#000000" fill-opacity="1"><g transform="translate(409.36658, 234.549142)"><g><path d="M 7.640625 -102.117188 L 31.492188 -102.117188 L 31.492188 -124.722656 L 7.640625 -124.722656 Z M 7.640625 0 L 31.492188 0 L 31.492188 -91.203125 L 7.640625 -91.203125 Z M 7.640625 0 "/></g></g></g><g fill="#00a1ff" fill-opacity="1"><g transform="translate(440.102909, 234.549142)"><g><path d="M 68.128906 1.558594 C 101.027344 1.558594 124.566406 -9.355469 130.804688 -32.273438 L 107.105469 -32.273438 C 100.714844 -22.136719 87.929688 -17.929688 68.128906 -17.929688 C 48.175781 -17.929688 33.519531 -23.230469 30.402344 -39.445312 L 132.363281 -39.445312 C 132.363281 -81.382812 103.675781 -92.761719 69.6875 -92.761719 C 32.582031 -92.761719 6.082031 -79.042969 6.082031 -45.679688 C 6.082031 -12.160156 33.832031 1.558594 68.128906 1.558594 Z M 31.335938 -55.8125 C 35.390625 -69.6875 48.953125 -74.210938 69.6875 -74.210938 C 88.554688 -74.210938 102.585938 -69.6875 106.949219 -55.8125 Z M 31.335938 -55.8125 "/></g></g></g><g fill="#00a1ff" fill-opacity="1"><g transform="translate(567.145221, 234.549142)"><g><path d="M 7.640625 0 L 31.492188 0 L 31.492188 -124.722656 L 7.640625 -124.722656 Z M 7.640625 0 "/></g></g></g><g fill="#00a1ff" fill-opacity="1"><g transform="translate(594.733849, 234.549142)"><g><path d="M 69.6875 1.558594 C 107.261719 1.558594 133.296875 -12.160156 133.296875 -45.679688 C 133.296875 -79.042969 107.261719 -92.761719 69.6875 -92.761719 C 32.273438 -92.761719 6.082031 -79.042969 6.082031 -45.679688 C 6.082031 -12.160156 32.273438 1.558594 69.6875 1.558594 Z M 69.6875 -18.242188 C 42.875 -18.242188 29.933594 -25.101562 29.933594 -45.679688 C 29.933594 -66.101562 42.875 -72.964844 69.6875 -72.964844 C 96.660156 -72.964844 109.445312 -66.101562 109.445312 -45.679688 C 109.445312 -25.101562 96.660156 -18.242188 69.6875 -18.242188 Z M 69.6875 -18.242188 "/></g></g></g><g fill="#00a1ff" fill-opacity="1"><g transform="translate(661.860902, 234.549142)"><g><path d="M 69.6875 1.558594 C 107.261719 1.558594 133.296875 -12.160156 133.296875 -45.679688 C 133.296875 -79.042969 107.261719 -92.761719 69.6875 -92.761719 C 32.273438 -92.761719 6.082031 -79.042969 6.082031 -45.679688 C 6.082031 -12.160156 32.273438 1.558594 69.6875 1.558594 Z M 69.6875 -18.242188 C 42.875 -18.242188 29.933594 -25.101562 29.933594 -45.679688 C 29.933594 -66.101562 42.875 -72.964844 69.6875 -72.964844 C 96.660156 -72.964844 109.445312 -66.101562 109.445312 -45.679688 C 109.445312 -25.101562 96.660156 -18.242188 69.6875 -18.242188 Z M 69.6875 -18.242188 "/></g></g></g></svg>