<svg xmlns="http://www.w3.org/2000/svg" xmlns:xlink="http://www.w3.org/1999/xlink" width="1080" zoomAndPan="magnify" viewBox="0 0 810 809.999993" height="1080" preserveAspectRatio="xMidYMid meet" version="1.0"><defs><g/></defs><g fill="#000000" fill-opacity="1"><g transform="translate(109.210668, 440.640007)"><g><path d="M 59.167969 1.179688 C 88.691406 1.179688 110.183594 -2.835938 110.183594 -24.800781 C 110.183594 -45.585938 89.992188 -47.238281 57.394531 -49.128906 C 31.769531 -50.664062 26.21875 -52.316406 26.21875 -59.519531 C 26.21875 -66.371094 31.769531 -68.851562 54.324219 -68.851562 C 78.300781 -68.851562 87.984375 -66.136719 87.984375 -55.742188 L 106.640625 -55.742188 C 106.640625 -76.054688 87.628906 -83.847656 56.6875 -83.847656 C 26.21875 -83.847656 7.558594 -78.652344 7.558594 -60.464844 C 7.558594 -42.042969 21.847656 -36.492188 57.394531 -34.722656 C 86.210938 -33.183594 91.527344 -32.003906 91.527344 -24.09375 C 91.527344 -16.769531 83.613281 -13.816406 60.347656 -13.816406 C 31.414062 -13.816406 23.265625 -18.304688 23.265625 -28.34375 L 4.605469 -28.34375 C 4.605469 -4.605469 25.273438 1.179688 59.167969 1.179688 Z M 59.167969 1.179688 "/></g></g></g><g fill="#000000" fill-opacity="1"><g transform="translate(215.246784, 440.640007)"><g><path d="M 52.789062 1.179688 C 81.25 1.179688 100.972656 -9.210938 100.972656 -34.601562 C 100.972656 -59.875 81.25 -70.269531 52.789062 -70.269531 C 24.445312 -70.269531 4.605469 -59.875 4.605469 -34.601562 C 4.605469 -9.210938 24.445312 1.179688 52.789062 1.179688 Z M 52.789062 -13.816406 C 32.476562 -13.816406 22.675781 -19.015625 22.675781 -34.601562 C 22.675781 -50.074219 32.476562 -55.269531 52.789062 -55.269531 C 73.222656 -55.269531 82.90625 -50.074219 82.90625 -34.601562 C 82.90625 -19.015625 73.222656 -13.816406 52.789062 -13.816406 Z M 52.789062 -13.816406 "/></g></g></g><g fill="#000000" fill-opacity="1"><g transform="translate(312.072463, 440.640007)"><g><path d="M 52.789062 1.179688 C 78.179688 1.179688 96.722656 -7.085938 100.265625 -27.164062 L 81.960938 -27.164062 C 79.007812 -17.359375 68.613281 -13.816406 52.789062 -13.816406 C 34.128906 -13.816406 22.675781 -19.015625 22.675781 -34.601562 C 22.675781 -50.074219 34.128906 -55.269531 52.789062 -55.269531 C 68.613281 -55.269531 79.007812 -51.84375 81.960938 -42.042969 L 100.265625 -42.042969 C 96.722656 -62 78.179688 -70.269531 52.789062 -70.269531 C 24.445312 -70.269531 4.605469 -59.875 4.605469 -34.601562 C 4.605469 -9.210938 24.445312 1.179688 52.789062 1.179688 Z M 52.789062 1.179688 "/></g></g></g><g fill="#000000" fill-opacity="1"><g transform="translate(408.307723, 440.640007)"><g><path d="M 5.785156 -77.355469 L 23.855469 -77.355469 L 23.855469 -94.476562 L 5.785156 -94.476562 Z M 5.785156 0 L 23.855469 0 L 23.855469 -69.085938 L 5.785156 -69.085938 Z M 5.785156 0 "/></g></g></g><g fill="#00a1ff" fill-opacity="1"><g transform="translate(431.590638, 440.640007)"><g><path d="M 51.609375 1.179688 C 76.527344 1.179688 94.359375 -7.085938 99.085938 -24.445312 L 81.132812 -24.445312 C 76.292969 -16.769531 66.605469 -13.582031 51.609375 -13.582031 C 36.492188 -13.582031 25.390625 -17.597656 23.027344 -29.878906 L 100.265625 -29.878906 C 100.265625 -61.648438 78.535156 -70.269531 52.789062 -70.269531 C 24.683594 -70.269531 4.605469 -59.875 4.605469 -34.601562 C 4.605469 -9.210938 25.628906 1.179688 51.609375 1.179688 Z M 23.738281 -42.277344 C 26.808594 -52.789062 37.082031 -56.214844 52.789062 -56.214844 C 67.078125 -56.214844 77.707031 -52.789062 81.015625 -42.277344 Z M 23.738281 -42.277344 "/></g></g></g><g fill="#00a1ff" fill-opacity="1"><g transform="translate(527.825904, 440.640007)"><g><path d="M 5.785156 0 L 23.855469 0 L 23.855469 -94.476562 L 5.785156 -94.476562 Z M 5.785156 0 "/></g></g></g><g fill="#00a1ff" fill-opacity="1"><g transform="translate(548.724445, 440.640007)"><g><path d="M 52.789062 1.179688 C 81.25 1.179688 100.972656 -9.210938 100.972656 -34.601562 C 100.972656 -59.875 81.25 -70.269531 52.789062 -70.269531 C 24.445312 -70.269531 4.605469 -59.875 4.605469 -34.601562 C 4.605469 -9.210938 24.445312 1.179688 52.789062 1.179688 Z M 52.789062 -13.816406 C 32.476562 -13.816406 22.675781 -19.015625 22.675781 -34.601562 C 22.675781 -50.074219 32.476562 -55.269531 52.789062 -55.269531 C 73.222656 -55.269531 82.90625 -50.074219 82.90625 -34.601562 C 82.90625 -19.015625 73.222656 -13.816406 52.789062 -13.816406 Z M 52.789062 -13.816406 "/></g></g></g><g fill="#00a1ff" fill-opacity="1"><g transform="translate(599.573589, 440.640007)"><g><path d="M 52.789062 1.179688 C 81.25 1.179688 100.972656 -9.210938 100.972656 -34.601562 C 100.972656 -59.875 81.25 -70.269531 52.789062 -70.269531 C 24.445312 -70.269531 4.605469 -59.875 4.605469 -34.601562 C 4.605469 -9.210938 24.445312 1.179688 52.789062 1.179688 Z M 52.789062 -13.816406 C 32.476562 -13.816406 22.675781 -19.015625 22.675781 -34.601562 C 22.675781 -50.074219 32.476562 -55.269531 52.789062 -55.269531 C 73.222656 -55.269531 82.90625 -50.074219 82.90625 -34.601562 C 82.90625 -19.015625 73.222656 -13.816406 52.789062 -13.816406 Z M 52.789062 -13.816406 "/></g></g></g></svg>